<svg
  width="200px"
  height="200px"
  viewBox="0 0 24 24"
  fill="none"
  xmlns="http://www.w3.org/2000/svg"
>
  <path
    d="M12 0C5.373 0 0 5.373 0 12C0 18.627 5.373 24 12 24C18.627 24 24 18.627 24 12C24 5.373 18.627 0 12 0ZM12 21.6C6.486 21.6 2.4 17.514 2.4 12C2.4 6.486 6.486 2.4 12 2.4C17.514 2.4 21.6 6.486 21.6 12C21.6 17.514 17.514 21.6 12 21.6ZM10.8 5.4H13.2V8.4H10.8V5.4ZM10.8 15.6H13.2V18.6H10.8V15.6ZM5.4 10.8H8.4V13.2H5.4V10.8ZM15.6 10.8H18.6V13.2H15.6V10.8ZM8.904 8.904L10.695 10.695L8.904 12.486L7.113 10.695L8.904 8.904ZM15.096 15.096L16.887 13.305L15.096 11.514L13.305 13.305L15.096 15.096ZM8.904 15.096L10.695 13.305L8.904 11.514L7.113 13.305L8.904 15.096ZM15.096 8.904L16.887 10.695L15.096 12.486L13.305 10.695L15.096 8.904Z"
    fill="#FF4136"
  />
</svg>